<mxfile host="Electron" modified="2023-05-26T06:55:49.390Z" agent="Mozilla/5.0 (Windows NT 10.0; Win64; x64) AppleWebKit/537.36 (KHTML, like Gecko) draw.io/21.2.8 Chrome/112.0.5615.165 Electron/24.2.0 Safari/537.36" etag="vcun6Jl0UlHCafJyxIc0" version="21.2.8" type="device">
  <diagram name="Page-1" id="rWzqpEKU52q07aLUeuPb">
    <mxGraphModel dx="1050" dy="629" grid="1" gridSize="10" guides="1" tooltips="1" connect="1" arrows="1" fold="1" page="1" pageScale="1" pageWidth="827" pageHeight="1169" math="0" shadow="0">
      <root>
        <mxCell id="0" />
        <mxCell id="1" parent="0" />
        <mxCell id="Ia6X97UWEj13zLQRsL5T-1" value="" style="ellipse;html=1;shape=startState;fillColor=#000000;strokeColor=#ff0000;" parent="1" vertex="1">
          <mxGeometry x="384" y="270" width="30" height="30" as="geometry" />
        </mxCell>
        <mxCell id="Ia6X97UWEj13zLQRsL5T-2" value="" style="edgeStyle=orthogonalEdgeStyle;html=1;verticalAlign=bottom;endArrow=open;endSize=8;strokeColor=#ff0000;rounded=0;entryX=0.5;entryY=0;entryDx=0;entryDy=0;" parent="1" source="Ia6X97UWEj13zLQRsL5T-1" target="Ia6X97UWEj13zLQRsL5T-5" edge="1">
          <mxGeometry relative="1" as="geometry">
            <mxPoint x="415" y="370" as="targetPoint" />
            <Array as="points">
              <mxPoint x="400" y="320" />
              <mxPoint x="400" y="320" />
            </Array>
          </mxGeometry>
        </mxCell>
        <mxCell id="Ia6X97UWEj13zLQRsL5T-3" style="edgeStyle=orthogonalEdgeStyle;rounded=0;orthogonalLoop=1;jettySize=auto;html=1;exitX=0.5;exitY=1;exitDx=0;exitDy=0;" parent="1" source="Ia6X97UWEj13zLQRsL5T-5" target="Ia6X97UWEj13zLQRsL5T-7" edge="1">
          <mxGeometry relative="1" as="geometry" />
        </mxCell>
        <mxCell id="Ia6X97UWEj13zLQRsL5T-4" style="edgeStyle=orthogonalEdgeStyle;rounded=0;orthogonalLoop=1;jettySize=auto;html=1;" parent="1" source="Ia6X97UWEj13zLQRsL5T-5" target="Ia6X97UWEj13zLQRsL5T-9" edge="1">
          <mxGeometry relative="1" as="geometry" />
        </mxCell>
        <mxCell id="Ia6X97UWEj13zLQRsL5T-5" value="&lt;font size=&quot;3&quot;&gt;User&lt;/font&gt;" style="rounded=1;whiteSpace=wrap;html=1;" parent="1" vertex="1">
          <mxGeometry x="320" y="370" width="160" height="30" as="geometry" />
        </mxCell>
        <mxCell id="Ia6X97UWEj13zLQRsL5T-6" style="edgeStyle=orthogonalEdgeStyle;rounded=0;orthogonalLoop=1;jettySize=auto;html=1;entryX=0;entryY=0.5;entryDx=0;entryDy=0;" parent="1" source="Ia6X97UWEj13zLQRsL5T-7" target="Ia6X97UWEj13zLQRsL5T-9" edge="1">
          <mxGeometry relative="1" as="geometry" />
        </mxCell>
        <mxCell id="Ia6X97UWEj13zLQRsL5T-7" value="&lt;font size=&quot;3&quot;&gt;Regisration&lt;/font&gt;" style="rounded=1;whiteSpace=wrap;html=1;" parent="1" vertex="1">
          <mxGeometry x="220" y="440" width="155" height="30" as="geometry" />
        </mxCell>
        <mxCell id="Ia6X97UWEj13zLQRsL5T-9" value="&lt;font size=&quot;3&quot;&gt;Login&lt;/font&gt;" style="rounded=1;whiteSpace=wrap;html=1;" parent="1" vertex="1">
          <mxGeometry x="414" y="440" width="155" height="30" as="geometry" />
        </mxCell>
        <mxCell id="Ia6X97UWEj13zLQRsL5T-31" style="edgeStyle=orthogonalEdgeStyle;rounded=0;orthogonalLoop=1;jettySize=auto;html=1;exitX=0.5;exitY=1;exitDx=0;exitDy=0;entryX=0.5;entryY=0;entryDx=0;entryDy=0;" parent="1" source="Ia6X97UWEj13zLQRsL5T-10" target="Ia6X97UWEj13zLQRsL5T-13" edge="1">
          <mxGeometry relative="1" as="geometry">
            <Array as="points">
              <mxPoint x="398" y="590" />
              <mxPoint x="398" y="615" />
            </Array>
          </mxGeometry>
        </mxCell>
        <mxCell id="s4EaHYV3aFPUD-VNH__G-4" style="edgeStyle=orthogonalEdgeStyle;rounded=0;orthogonalLoop=1;jettySize=auto;html=1;exitX=1;exitY=0.5;exitDx=0;exitDy=0;entryX=0.5;entryY=1;entryDx=0;entryDy=0;" edge="1" parent="1" source="Ia6X97UWEj13zLQRsL5T-10" target="Ia6X97UWEj13zLQRsL5T-9">
          <mxGeometry relative="1" as="geometry" />
        </mxCell>
        <mxCell id="Ia6X97UWEj13zLQRsL5T-10" value="&lt;font size=&quot;3&quot;&gt;Valid&amp;nbsp;&lt;br&gt;User&lt;br&gt;&lt;/font&gt;" style="rhombus;whiteSpace=wrap;html=1;" parent="1" vertex="1">
          <mxGeometry x="349" y="510" width="100" height="80" as="geometry" />
        </mxCell>
        <mxCell id="Ia6X97UWEj13zLQRsL5T-11" value="&lt;span style=&quot;font-size: 18px;&quot;&gt;START&lt;/span&gt;" style="text;html=1;strokeColor=none;fillColor=none;align=center;verticalAlign=middle;whiteSpace=wrap;rounded=0;" parent="1" vertex="1">
          <mxGeometry x="375" y="240" width="60" height="30" as="geometry" />
        </mxCell>
        <mxCell id="Ia6X97UWEj13zLQRsL5T-12" value="&lt;font style=&quot;font-size: 14px;&quot;&gt;NO&lt;/font&gt;" style="text;html=1;strokeColor=none;fillColor=none;align=center;verticalAlign=middle;whiteSpace=wrap;rounded=0;" parent="1" vertex="1">
          <mxGeometry x="480" y="500" width="60" height="30" as="geometry" />
        </mxCell>
        <mxCell id="Ia6X97UWEj13zLQRsL5T-32" style="edgeStyle=orthogonalEdgeStyle;rounded=0;orthogonalLoop=1;jettySize=auto;html=1;exitX=0.5;exitY=1;exitDx=0;exitDy=0;entryX=0.5;entryY=0;entryDx=0;entryDy=0;" parent="1" source="Ia6X97UWEj13zLQRsL5T-13" target="Ia6X97UWEj13zLQRsL5T-14" edge="1">
          <mxGeometry relative="1" as="geometry" />
        </mxCell>
        <mxCell id="Ia6X97UWEj13zLQRsL5T-13" value="&lt;font size=&quot;3&quot;&gt;Search Product&lt;/font&gt;" style="rounded=1;whiteSpace=wrap;html=1;" parent="1" vertex="1">
          <mxGeometry x="320" y="640" width="155" height="30" as="geometry" />
        </mxCell>
        <mxCell id="Ia6X97UWEj13zLQRsL5T-33" style="edgeStyle=orthogonalEdgeStyle;rounded=0;orthogonalLoop=1;jettySize=auto;html=1;exitX=0.5;exitY=1;exitDx=0;exitDy=0;entryX=0.495;entryY=0;entryDx=0;entryDy=0;entryPerimeter=0;" parent="1" source="Ia6X97UWEj13zLQRsL5T-14" target="Ia6X97UWEj13zLQRsL5T-15" edge="1">
          <mxGeometry relative="1" as="geometry" />
        </mxCell>
        <mxCell id="Ia6X97UWEj13zLQRsL5T-14" value="&lt;font size=&quot;3&quot;&gt;Select Product&lt;/font&gt;" style="rounded=1;whiteSpace=wrap;html=1;" parent="1" vertex="1">
          <mxGeometry x="320" y="720" width="155" height="30" as="geometry" />
        </mxCell>
        <mxCell id="Ia6X97UWEj13zLQRsL5T-15" value="" style="verticalLabelPosition=bottom;verticalAlign=top;html=1;shape=mxgraph.basic.rect;fillColor2=none;strokeWidth=1;size=20;indent=5;" parent="1" vertex="1">
          <mxGeometry x="212.5" y="800" width="375" height="10" as="geometry" />
        </mxCell>
        <mxCell id="Ia6X97UWEj13zLQRsL5T-40" style="edgeStyle=orthogonalEdgeStyle;rounded=0;orthogonalLoop=1;jettySize=auto;html=1;exitX=0.5;exitY=1;exitDx=0;exitDy=0;entryX=0.196;entryY=-0.32;entryDx=0;entryDy=0;entryPerimeter=0;" parent="1" source="Ia6X97UWEj13zLQRsL5T-16" target="Ia6X97UWEj13zLQRsL5T-20" edge="1">
          <mxGeometry relative="1" as="geometry" />
        </mxCell>
        <mxCell id="Ia6X97UWEj13zLQRsL5T-41" style="edgeStyle=orthogonalEdgeStyle;rounded=0;orthogonalLoop=1;jettySize=auto;html=1;entryX=0.832;entryY=-0.08;entryDx=0;entryDy=0;entryPerimeter=0;" parent="1" source="Ia6X97UWEj13zLQRsL5T-16" target="Ia6X97UWEj13zLQRsL5T-20" edge="1">
          <mxGeometry relative="1" as="geometry" />
        </mxCell>
        <mxCell id="Ia6X97UWEj13zLQRsL5T-16" value="&lt;font size=&quot;3&quot;&gt;Payment&lt;/font&gt;" style="rounded=1;whiteSpace=wrap;html=1;" parent="1" vertex="1">
          <mxGeometry x="322.5" y="930" width="155" height="30" as="geometry" />
        </mxCell>
        <mxCell id="Ia6X97UWEj13zLQRsL5T-30" style="edgeStyle=orthogonalEdgeStyle;rounded=0;orthogonalLoop=1;jettySize=auto;html=1;exitX=0;exitY=0.5;exitDx=0;exitDy=0;entryX=0;entryY=0.5;entryDx=0;entryDy=0;" parent="1" source="Ia6X97UWEj13zLQRsL5T-17" target="Ia6X97UWEj13zLQRsL5T-13" edge="1">
          <mxGeometry relative="1" as="geometry" />
        </mxCell>
        <mxCell id="Ia6X97UWEj13zLQRsL5T-38" style="edgeStyle=orthogonalEdgeStyle;rounded=0;orthogonalLoop=1;jettySize=auto;html=1;entryX=0.5;entryY=0;entryDx=0;entryDy=0;" parent="1" source="Ia6X97UWEj13zLQRsL5T-17" target="Ia6X97UWEj13zLQRsL5T-16" edge="1">
          <mxGeometry relative="1" as="geometry" />
        </mxCell>
        <mxCell id="Ia6X97UWEj13zLQRsL5T-17" value="&lt;font size=&quot;3&quot;&gt;Add To Cart&lt;/font&gt;" style="rounded=1;whiteSpace=wrap;html=1;" parent="1" vertex="1">
          <mxGeometry x="220" y="850" width="155" height="30" as="geometry" />
        </mxCell>
        <mxCell id="Ia6X97UWEj13zLQRsL5T-39" style="edgeStyle=orthogonalEdgeStyle;rounded=0;orthogonalLoop=1;jettySize=auto;html=1;exitX=0.5;exitY=1;exitDx=0;exitDy=0;" parent="1" source="Ia6X97UWEj13zLQRsL5T-19" edge="1">
          <mxGeometry relative="1" as="geometry">
            <mxPoint x="400" y="930" as="targetPoint" />
          </mxGeometry>
        </mxCell>
        <mxCell id="Ia6X97UWEj13zLQRsL5T-19" value="&lt;font size=&quot;3&quot;&gt;Buy&lt;/font&gt;" style="rounded=1;whiteSpace=wrap;html=1;" parent="1" vertex="1">
          <mxGeometry x="414" y="850" width="155" height="30" as="geometry" />
        </mxCell>
        <mxCell id="Ia6X97UWEj13zLQRsL5T-20" value="" style="verticalLabelPosition=bottom;verticalAlign=top;html=1;shape=mxgraph.basic.rect;fillColor2=none;strokeWidth=1;size=20;indent=5;" parent="1" vertex="1">
          <mxGeometry x="210" y="1000" width="375" height="10" as="geometry" />
        </mxCell>
        <mxCell id="Ia6X97UWEj13zLQRsL5T-44" style="edgeStyle=orthogonalEdgeStyle;rounded=0;orthogonalLoop=1;jettySize=auto;html=1;exitX=0.5;exitY=1;exitDx=0;exitDy=0;entryX=0.224;entryY=0.12;entryDx=0;entryDy=0;entryPerimeter=0;" parent="1" source="Ia6X97UWEj13zLQRsL5T-21" target="Ia6X97UWEj13zLQRsL5T-23" edge="1">
          <mxGeometry relative="1" as="geometry">
            <Array as="points">
              <mxPoint x="298" y="1151" />
            </Array>
          </mxGeometry>
        </mxCell>
        <mxCell id="Ia6X97UWEj13zLQRsL5T-21" value="&lt;font size=&quot;3&quot;&gt;COD&lt;/font&gt;" style="rounded=1;whiteSpace=wrap;html=1;" parent="1" vertex="1">
          <mxGeometry x="220" y="1060" width="155" height="30" as="geometry" />
        </mxCell>
        <mxCell id="Ia6X97UWEj13zLQRsL5T-22" value="&lt;font size=&quot;3&quot;&gt;Online Payment&lt;/font&gt;" style="rounded=1;whiteSpace=wrap;html=1;" parent="1" vertex="1">
          <mxGeometry x="420" y="1060" width="155" height="30" as="geometry" />
        </mxCell>
        <mxCell id="Ia6X97UWEj13zLQRsL5T-48" style="edgeStyle=orthogonalEdgeStyle;rounded=0;orthogonalLoop=1;jettySize=auto;html=1;" parent="1" source="Ia6X97UWEj13zLQRsL5T-23" target="Ia6X97UWEj13zLQRsL5T-24" edge="1">
          <mxGeometry relative="1" as="geometry">
            <Array as="points">
              <mxPoint x="398" y="1170" />
              <mxPoint x="398" y="1170" />
            </Array>
          </mxGeometry>
        </mxCell>
        <mxCell id="Ia6X97UWEj13zLQRsL5T-23" value="" style="verticalLabelPosition=bottom;verticalAlign=top;html=1;shape=mxgraph.basic.rect;fillColor2=none;strokeWidth=1;size=20;indent=5;" parent="1" vertex="1">
          <mxGeometry x="211.5" y="1150" width="375" height="10" as="geometry" />
        </mxCell>
        <mxCell id="Ia6X97UWEj13zLQRsL5T-46" style="edgeStyle=orthogonalEdgeStyle;rounded=0;orthogonalLoop=1;jettySize=auto;html=1;entryX=0.5;entryY=0;entryDx=0;entryDy=0;" parent="1" source="Ia6X97UWEj13zLQRsL5T-24" target="Ia6X97UWEj13zLQRsL5T-25" edge="1">
          <mxGeometry relative="1" as="geometry">
            <Array as="points">
              <mxPoint x="398" y="1255" />
            </Array>
          </mxGeometry>
        </mxCell>
        <mxCell id="Ia6X97UWEj13zLQRsL5T-24" value="&lt;font size=&quot;3&quot;&gt;Message and Delivery Location&lt;/font&gt;" style="rounded=1;whiteSpace=wrap;html=1;" parent="1" vertex="1">
          <mxGeometry x="250" y="1200" width="300" height="30" as="geometry" />
        </mxCell>
        <mxCell id="Ia6X97UWEj13zLQRsL5T-47" style="edgeStyle=orthogonalEdgeStyle;rounded=0;orthogonalLoop=1;jettySize=auto;html=1;exitX=0.5;exitY=1;exitDx=0;exitDy=0;entryX=0.5;entryY=0;entryDx=0;entryDy=0;" parent="1" source="Ia6X97UWEj13zLQRsL5T-25" target="Ia6X97UWEj13zLQRsL5T-26" edge="1">
          <mxGeometry relative="1" as="geometry">
            <Array as="points">
              <mxPoint x="400" y="1310" />
            </Array>
          </mxGeometry>
        </mxCell>
        <mxCell id="Ia6X97UWEj13zLQRsL5T-25" value="&lt;font size=&quot;3&quot;&gt;Feedback&lt;/font&gt;" style="rounded=1;whiteSpace=wrap;html=1;" parent="1" vertex="1">
          <mxGeometry x="320" y="1280" width="155" height="30" as="geometry" />
        </mxCell>
        <mxCell id="Ia6X97UWEj13zLQRsL5T-26" value="&lt;font size=&quot;3&quot;&gt;Logout&lt;/font&gt;" style="rounded=1;whiteSpace=wrap;html=1;" parent="1" vertex="1">
          <mxGeometry x="322.5" y="1360" width="155" height="30" as="geometry" />
        </mxCell>
        <mxCell id="Ia6X97UWEj13zLQRsL5T-27" value="" style="ellipse;html=1;shape=endState;fillColor=#000000;strokeColor=#ff0000;" parent="1" vertex="1">
          <mxGeometry x="385" y="1470" width="30" height="30" as="geometry" />
        </mxCell>
        <mxCell id="Ia6X97UWEj13zLQRsL5T-28" value="" style="endArrow=none;html=1;rounded=0;exitX=0.5;exitY=0;exitDx=0;exitDy=0;" parent="1" source="Ia6X97UWEj13zLQRsL5T-27" edge="1">
          <mxGeometry width="50" height="50" relative="1" as="geometry">
            <mxPoint x="350" y="1440" as="sourcePoint" />
            <mxPoint x="400" y="1390" as="targetPoint" />
          </mxGeometry>
        </mxCell>
        <mxCell id="Ia6X97UWEj13zLQRsL5T-29" value="&lt;span style=&quot;font-size: 18px;&quot;&gt;END&lt;/span&gt;" style="text;html=1;strokeColor=none;fillColor=none;align=center;verticalAlign=middle;whiteSpace=wrap;rounded=0;" parent="1" vertex="1">
          <mxGeometry x="367.5" y="1510" width="60" height="30" as="geometry" />
        </mxCell>
        <mxCell id="Ia6X97UWEj13zLQRsL5T-35" value="" style="endArrow=classic;html=1;rounded=0;exitX=0.222;exitY=1.28;exitDx=0;exitDy=0;exitPerimeter=0;entryX=0.489;entryY=0;entryDx=0;entryDy=0;entryPerimeter=0;" parent="1" source="Ia6X97UWEj13zLQRsL5T-15" target="Ia6X97UWEj13zLQRsL5T-17" edge="1">
          <mxGeometry width="50" height="50" relative="1" as="geometry">
            <mxPoint x="290" y="820" as="sourcePoint" />
            <mxPoint x="290" y="840" as="targetPoint" />
          </mxGeometry>
        </mxCell>
        <mxCell id="Ia6X97UWEj13zLQRsL5T-36" value="" style="endArrow=classic;html=1;rounded=0;entryX=0.555;entryY=0;entryDx=0;entryDy=0;entryPerimeter=0;exitX=0.77;exitY=0.88;exitDx=0;exitDy=0;exitPerimeter=0;" parent="1" source="Ia6X97UWEj13zLQRsL5T-15" target="Ia6X97UWEj13zLQRsL5T-19" edge="1">
          <mxGeometry width="50" height="50" relative="1" as="geometry">
            <mxPoint x="492" y="810" as="sourcePoint" />
            <mxPoint x="490" y="850" as="targetPoint" />
          </mxGeometry>
        </mxCell>
        <mxCell id="Ia6X97UWEj13zLQRsL5T-42" value="" style="endArrow=classic;html=1;rounded=0;entryX=0.395;entryY=-0.08;entryDx=0;entryDy=0;entryPerimeter=0;" parent="1" target="Ia6X97UWEj13zLQRsL5T-21" edge="1">
          <mxGeometry width="50" height="50" relative="1" as="geometry">
            <mxPoint x="281" y="1010" as="sourcePoint" />
            <mxPoint x="330" y="960" as="targetPoint" />
          </mxGeometry>
        </mxCell>
        <mxCell id="Ia6X97UWEj13zLQRsL5T-43" value="" style="endArrow=classic;html=1;rounded=0;entryX=0.648;entryY=0;entryDx=0;entryDy=0;entryPerimeter=0;" parent="1" target="Ia6X97UWEj13zLQRsL5T-22" edge="1">
          <mxGeometry width="50" height="50" relative="1" as="geometry">
            <mxPoint x="520" y="1010" as="sourcePoint" />
            <mxPoint x="291" y="1068" as="targetPoint" />
          </mxGeometry>
        </mxCell>
        <mxCell id="Ia6X97UWEj13zLQRsL5T-45" value="" style="endArrow=classic;html=1;rounded=0;" parent="1" edge="1">
          <mxGeometry width="50" height="50" relative="1" as="geometry">
            <mxPoint x="520" y="1090" as="sourcePoint" />
            <mxPoint x="520" y="1150" as="targetPoint" />
          </mxGeometry>
        </mxCell>
        <mxCell id="s4EaHYV3aFPUD-VNH__G-1" value="&lt;font style=&quot;font-size: 14px;&quot;&gt;YES&lt;/font&gt;" style="text;html=1;strokeColor=none;fillColor=none;align=center;verticalAlign=middle;whiteSpace=wrap;rounded=0;" vertex="1" parent="1">
          <mxGeometry x="400" y="590" width="60" height="30" as="geometry" />
        </mxCell>
        <mxCell id="s4EaHYV3aFPUD-VNH__G-6" value="" style="endArrow=classic;html=1;rounded=0;" edge="1" parent="1">
          <mxGeometry width="50" height="50" relative="1" as="geometry">
            <mxPoint x="440" y="470" as="sourcePoint" />
            <mxPoint x="400" y="510" as="targetPoint" />
            <Array as="points">
              <mxPoint x="440" y="490" />
              <mxPoint x="400" y="490" />
            </Array>
          </mxGeometry>
        </mxCell>
      </root>
    </mxGraphModel>
  </diagram>
</mxfile>
